<?xml version="1.0" encoding="utf-8"?>
<!-- Generator: Adobe Illustrator 16.0.4, SVG Export Plug-In . SVG Version: 6.00 Build 0)  -->
<!DOCTYPE svg PUBLIC "-//W3C//DTD SVG 1.1//EN" "http://www.w3.org/Graphics/SVG/1.1/DTD/svg11.dtd">
<svg version="1.1" id="Layer_1_copy" xmlns="http://www.w3.org/2000/svg" xmlns:xlink="http://www.w3.org/1999/xlink" x="0px"
	 y="0px" width="360px" height="259.2px" viewBox="0 0 360 259.2" enable-background="new 0 0 360 259.2" xml:space="preserve">
<g>
	<g>
		<path d="M227.13,174.467l-0.957-6.377l0.324,3.227C226.657,172.707,226.873,173.42,227.13,174.467z"/>
		<polygon points="224.829,162.271 224.556,161.166 224.274,160.234 		"/>
		<path d="M221.432,151.607c0.629,1.881,1.262,3.656,1.898,5.391C222.83,155.455,222.209,153.67,221.432,151.607z"/>
		<path d="M224.042,160.125c-0.102-0.689-0.108-1.02,0.222,0.07l0.011,0.039c-0.318-1.064-0.535-2.174-0.944-3.236
			C223.712,158.139,223.847,159.213,224.042,160.125z"/>
		<path d="M224.042,160.125c0.102,0.674,0.295,1.703,0.347,2.068C224.301,161.592,224.188,160.904,224.042,160.125z"/>
		<path d="M221.724,157.877c-0.41-1.014,0.127-0.912-0.7-2.963c-1.704-4.91-3.644-8.893-5.665-13.273
			c-0.896-2.018-2.167-5.279-3.288-7.17c-2.297-4.697-10.348-15.278-6.009-8.781c6.326,9.843,9.769,16.718,13.502,26.517
			c3.309,7.891,5.078,15.963,6.434,24.59c0.141,2.443,0.216,4.742,0.297,7.047c-0.177-2.994,0.076-6.117-0.475-9.506
			C225.426,169.834,223.738,164.604,221.724,157.877z"/>
		<path d="M217.484,219.893c0.619-0.943,1.818-2.818,1.731-2.869c2.783-4.189,4.695-9.141,6.002-14.23l-0.966,2.141
			c-0.928,2.846-0.916,3.227,0.032,0.725c-2.061,5.727-4.697,10.934-8.208,15.621C216.391,221.059,216.464,221.215,217.484,219.893z
			"/>
		<polygon points="214.101,224.121 216.076,221.279 215.965,221.363 214.025,224.207 		"/>
		<path d="M211.057,130.324c-7.434-12.841-16.25-23.827-25.777-33.557c-0.795-0.681-1.393-1.137-2.331-2.175
			c-0.709-0.816-1.373-1.655-2.173-2.371l-4.421-3.978l-1.603-1.379l-0.031-0.026c-0.87-0.705-0.681-0.437-0.215,0.073
			c0.548,0.555,1.037,1.07,1.444,1.519c-0.258-0.285-0.98-1.014-1.444-1.519c-0.648-0.658-1.41-1.403-2.304-2.235
			c-1.444-1.107-2.942-2.241-4.483-3.481c1.766,1.312,3.255,2.459,4.483,3.481l2.55,2.188l0.765,0.624
			c-3.299-3.152-6.966-5.81-10.512-8.653c-0.823-0.625-1.617-1.231-2.262-1.713c-2.71-1.829-5.484-3.577-7.033-4.919l-2.006-1.375
			l0.362,0.295l-0.719-0.539c-2.858-1.868-5.878-3.52-8.827-5.3c-1.948-1.104-4.057-1.997-6.149-2.942c0,0-1.321-0.826-1.976-1.238
			c-0.887-0.305-2.123-0.828-3.527-1.476c1.586,0.94,3.044,1.833,4.4,2.611c1.952,1.251,4.87,1.779,6.981,3.622
			c-2.111-1.843-5.029-2.371-6.981-3.622c-1.356-0.777-2.814-1.671-4.4-2.611c-2.979-1.315-6.888-2.865-9.914-4.391
			c3.943,1.436,7.222,2.844,9.914,4.391c1.404,0.648,2.641,1.171,3.527,1.476c0.654,0.412,1.976,1.238,1.976,1.238
			c2.093,0.945,4.201,1.838,6.149,2.942c-5.873-3.25-11.939-6.401-18.401-8.928c-20.556-8.551-42.707-12.417-64.263-8.439
			c-21.489,3.555-41.783,19.894-46.883,43.322c-5.652,25.12,2.034,50.101,13.376,70.759c23.874,41.035,60.878,69.75,107.281,83.09
			c8.97,2.346,22.362,4.449,35.738,3.01c13.396-1.17,26.191-6.461,33.661-11.92c18.045-16.887,6.484-9.936,6.069-9.045
			c-11.286,8.121-21.191,16.885-50.478,16.631c19.99,0.062-15.121,2.852-32.72-5.561c-25.417-9.016-59.51-29.365-80.295-55.932
			c-5.218-6.502-10.434-13.672-15.337-22.336c-12.27-22.246-19.486-48.116-12.233-71.793c6.667-24.235,32.21-39.088,59.013-38.28
			c14.216-0.042,26.791,2.406,38.339,6.062c8.48,2.66,16.984,7.004,23.389,10.289c9.855,5.603,18.274,10.681,25.672,16.482
			c-8.255-6.495-14.846-10.452-24.986-16.202c-6.874-3.655,5.041,2.042,9.523,4.687c1.934,1.092,4.503,3.53,6.388,4.657
			c4.076,2.589,7.577,5.292,11.772,8.338c1.799,1.286,1.323,1.457,2.185,2.143c5.311,4.615,9.88,7.711,12.845,11.143
			c2.323,2.541,4.558,4.679,6.387,7.082c1.221,1.471,2.434,2.921,3.743,4.423c0.83,0.935,1.741,1.854,2.562,2.87
			c-0.489-0.911-0.635-1.27-0.713-1.662c1.22,1.413,2.612,3.665,3.745,5.172c-1.133-1.508-2.525-3.759-3.745-5.172
			c0.078,0.392,0.224,0.75,0.713,1.662c5.814,7.221,12.283,15.885,16.883,24.789l-0.031-0.146
			c-2.681-5.199-5.635-10.082-8.734-15.308c1.326,2.276,1.035,2.063-0.599-0.446c-0.322-0.697-0.751-1.354-1.138-2.015
			c3.028,4.25,6.07,8.538,8.133,13.05c-0.001-0.002,1.153,1.916,1.729,2.871c0.729,1.488,0.556,1.48,0.609,1.848
			c0.535,1.023,1.15,1.986,1.633,3.055C214.492,137.236,211.039,130.338,211.057,130.324z"/>
		<path d="M172.113,84.579c0.621,0.528,1.355,1.173,2.144,1.86c-2.75-2.643-5.91-4.789-8.841-7.208
			C166.857,80.646,169.473,82.603,172.113,84.579z"/>
	</g>
</g>
<g>
	<g>
		<path d="M224.446,171.455l-1.086-6.256l0.394,3.172C223.94,169.736,224.171,170.432,224.446,171.455z"/>
		<polygon points="221.82,159.521 221.527,158.441 221.231,157.531 		"/>
		<path d="M218.173,149.127c0.654,1.838,1.315,3.572,1.975,5.268C219.625,152.885,218.979,151.141,218.173,149.127z"/>
		<path d="M220.998,157.43c-0.115-0.678-0.129-1.004,0.221,0.061l0.013,0.041c-0.281-1.061-0.65-2.102-1.084-3.137
			C220.562,155.504,220.84,156.518,220.998,157.43z"/>
		<path d="M220.998,157.43c0.111,0.662,0.325,1.672,0.384,2.031C221.281,158.869,221.157,158.195,220.998,157.43z"/>
		<path d="M218.562,155.316c-0.422-0.988,0.113-0.906-0.743-2.908c-1.762-4.805-3.9-8.621-5.901-12.926
			c-0.942-1.957-2.309-5.123-3.408-6.98c-2.389-4.556-10.462-14.861-6.102-8.524c6.436,9.567,9.895,16.292,13.916,25.803
			c3.317,7.723,5.583,15.527,7.07,24.008c0.342,2.385,0.358,4.656,0.523,6.92c-0.19-2.949-0.112-6.018-0.78-9.334
			C222.633,166.957,220.773,161.859,218.562,155.316z"/>
		<path d="M216.243,216.363c0.635-0.914,1.738-2.807,1.656-2.854c2.71-4.148,4.447-9.092,5.625-14.121
			c-0.233,0.729-0.591,1.41-0.886,2.131c-0.867,2.818-0.847,3.193,0.05,0.713c-1.983,5.648-4.322,10.904-7.831,15.5
			C215.167,217.516,215.24,217.668,216.243,216.363z"/>
		<polygon points="212.921,220.537 214.857,217.732 214.748,217.816 212.847,220.621 		"/>
		<path d="M207.457,128.422c-7.576-12.492-16.389-23.184-25.828-32.705c-0.786-0.666-1.376-1.111-2.305-2.13
			c-0.69-0.81-1.368-1.612-2.155-2.319l-4.357-3.909l-1.579-1.355l-0.031-0.025c-0.859-0.691-0.672-0.428-0.213,0.074
			c0.539,0.546,1.021,1.053,1.423,1.495c-0.255-0.28-0.967-0.998-1.423-1.495c-0.638-0.648-1.389-1.38-2.27-2.198
			c-1.421-1.091-2.896-2.209-4.411-3.433c1.74,1.292,3.204,2.425,4.411,3.433l2.514,2.149l0.753,0.612
			c-3.254-3.093-6.855-5.72-10.343-8.524c-0.809-0.617-1.591-1.214-2.224-1.688c-2.647-1.831-5.38-3.55-6.894-4.884l-1.968-1.362
			l0.353,0.293l-0.703-0.534c-2.778-1.896-5.754-3.518-8.64-5.3c-1.915-1.09-3.945-2.057-6.012-2.979c0,0-1.291-0.829-1.93-1.241
			c-0.87-0.308-2.084-0.833-3.459-1.487c1.55,0.944,2.974,1.84,4.301,2.62c1.923,1.226,4.758,1.835,6.823,3.661
			c-2.065-1.826-4.9-2.436-6.823-3.661c-1.327-0.78-2.751-1.676-4.301-2.62c-2.88-1.411-6.733-2.93-9.683-4.491
			c3.857,1.478,7.09,2.853,9.683,4.491c1.375,0.653,2.589,1.179,3.459,1.487c0.639,0.412,1.93,1.241,1.93,1.241
			c2.066,0.922,4.097,1.889,6.012,2.979c-5.736-3.274-11.658-6.479-17.98-9.059c-20.071-8.805-41.7-13.215-63.063-10.142
			C39.258,48.113,18.568,64.06,14.393,87.491c-4.807,24.938,3.775,49.144,15.21,69.292c24.331,39.895,60.365,67.975,105.678,82.262
			c8.755,2.564,21.86,5.045,35.075,4.084c13.223-0.699,26.035-5.494,33.532-10.75c18.007-16.516,6.441-9.777,6.068-8.887
			c-11.147,7.875-21.238,16.197-50.033,14.908c19.661,0.643-14.954,2.326-32.064-6.391c-24.804-9.5-58.15-29.699-78.9-55.617
			c-5.235-6.332-10.42-13.354-15.479-21.754c-12.395-21.668-20.644-46.864-14.171-70.325c5.868-24.161,31.788-38.07,58.08-36.336
			c13.995,0.407,26.308,3.164,37.603,7.011c8.282,2.83,16.612,7.18,22.861,10.536c9.655,5.613,17.906,10.677,25.187,16.396
			c-8.123-6.404-14.572-10.368-24.518-16.107c-6.701-3.728,4.931,2.091,9.354,4.678c1.871,1.127,4.405,3.512,6.253,4.639
			c3.999,2.57,7.435,5.25,11.57,8.247c1.769,1.267,1.296,1.442,2.146,2.117c5.232,4.543,9.756,7.562,12.69,10.927
			c2.287,2.506,4.524,4.574,6.342,6.928c1.214,1.439,2.418,2.858,3.719,4.329l2.573,2.782c-0.544-0.848-0.646-1.236-0.738-1.614
			c1.241,1.359,2.637,3.56,3.764,5.037c-1.127-1.477-2.522-3.678-3.764-5.037c0.092,0.378,0.194,0.766,0.738,1.614
			c5.775,7.068,12.351,15.446,17.031,24.132l-0.033-0.143c-2.712-5.081-5.791-9.786-8.859-14.923
			c1.336,2.224,1.045,2.022-0.598-0.43l-1.177-1.946c3.132,4.08,6.052,8.343,8.263,12.686c0,0,1.165,1.867,1.747,2.798
			c0.739,1.453,0.566,1.451,0.624,1.814l1.698,2.959C210.898,135.197,207.458,128.425,207.457,128.422z"/>
		<path d="M168.631,83.759c0.61,0.519,1.336,1.151,2.113,1.828c-2.713-2.594-5.812-4.721-8.697-7.104
			C163.462,79.88,166.033,81.81,168.631,83.759z"/>
	</g>
</g>
<g opacity="0.22">
	<g>
		<path d="M224.024,178.658l-1.126-6.607l0.427,3.346C223.524,176.836,223.749,177.576,224.024,178.658z"/>
		<polygon points="221.31,166.061 221.007,164.918 220.705,163.953 		"/>
		<path d="M217.559,155.076c0.679,1.943,1.359,3.775,2.035,5.562C219.053,159.047,218.387,157.209,217.559,155.076z"/>
		<path d="M220.485,163.842c-0.126-0.715-0.146-1.055,0.207,0.072l0.013,0.039c-0.286-1.117-0.664-2.219-1.111-3.314
			C220.023,161.812,220.319,162.883,220.485,163.842z"/>
		<path d="M220.485,163.842c0.125,0.697,0.353,1.764,0.416,2.141C220.794,165.357,220.655,164.65,220.485,163.842z"/>
		<path d="M218.158,161.545c-0.429-1.045,0.069-0.941-0.804-3.062c-1.806-5.086-3.991-9.135-6.061-13.689
			c-0.962-2.074-2.428-5.393-3.554-7.365c-2.451-4.818-10.733-15.765-6.226-9.06c6.64,10.125,10.204,17.248,14.348,27.314
			c3.41,8.18,5.727,16.443,7.24,25.418c0.353,2.52,0.373,4.924,0.547,7.316c-0.205-3.117-0.133-6.361-0.831-9.869
			C222.284,173.877,220.43,168.475,218.158,161.545z"/>
		<path d="M215.595,226.072c0.659-0.959,1.812-2.953,1.728-3.002c2.759-4.4,4.558-9.607,5.794-14.918
			c-0.235,0.771-0.594,1.494-0.888,2.26c-0.899,2.977-0.895,3.365,0.021,0.742c-2.016,5.975-4.426,11.537-8.055,16.387
			C214.503,227.303,214.566,227.455,215.595,226.072z"/>
		<polygon points="212.195,230.504 214.195,227.541 214.086,227.631 212.12,230.594 		"/>
		<path d="M206.546,133.184c-7.817-13.198-16.916-24.494-26.662-34.551c-0.806-0.71-1.405-1.19-2.369-2.261
			c-0.72-0.849-1.422-1.692-2.238-2.437l-4.495-4.127l-1.629-1.436l-0.031-0.026c-0.884-0.736-0.686-0.464-0.204,0.06
			c0.557,0.572,1.059,1.104,1.48,1.564c-0.268-0.292-1.006-1.045-1.48-1.564c-0.665-0.679-1.444-1.449-2.355-2.309
			c-1.464-1.157-2.983-2.34-4.55-3.629c1.791,1.371,3.303,2.567,4.55,3.629l2.591,2.276l0.774,0.65
			c-3.361-3.265-7.078-6.04-10.681-8.999c-0.833-0.653-1.638-1.285-2.293-1.789c-2.729-1.939-5.543-3.763-7.121-5.149l-2.032-1.438
			l0.369,0.306l-0.73-0.56c-2.87-2.001-5.94-3.712-8.919-5.593c-1.972-1.16-4.061-2.193-6.189-3.175c0,0-1.341-0.858-2.004-1.286
			c-0.893-0.339-2.141-0.902-3.56-1.596c1.607,0.981,3.086,1.911,4.461,2.726c1.999,1.27,4.885,1.989,7.042,3.872
			c-2.157-1.883-5.043-2.602-7.042-3.872c-1.375-0.815-2.854-1.745-4.461-2.726c-2.968-1.5-6.948-3.096-10.002-4.719
			c3.971,1.584,7.314,3.014,10.002,4.719c1.419,0.694,2.667,1.256,3.56,1.596c0.663,0.427,2.004,1.286,2.004,1.286
			c2.129,0.982,4.218,2.015,6.189,3.175c-5.923-3.454-12.036-6.834-18.561-9.555c-20.717-9.285-43.031-13.93-65.056-10.682
			C32.979,48.422,11.68,65.243,7.39,89.951c-4.937,26.302,3.932,51.842,15.749,73.088c25.12,42.059,62.271,71.768,108.999,86.701
			c9.022,2.678,22.512,5.289,36.101,4.277c13.599-0.738,26.754-5.773,34.446-11.289c18.532-17.279,6.854-10.068,6.455-9.1
			c-5.618,4.881-11.263,8.252-18.932,11.482c-7.67,3.16-17.971,5.584-32.725,4.484c20.324,0.609-15.438,2.33-33.157-6.754
			c-25.732-9.855-60.14-31.391-81.618-58.771c-5.425-6.695-10.778-14.133-16.015-23.023C13.843,138.119,5.284,111.415,12.013,86.47
			c3.43-12.142,11.032-23.33,22.196-29.806c11.047-6.609,24.467-9.253,38.096-8.82c14.496,0.434,27.222,3.407,38.891,7.504
			c8.557,3.004,17.18,7.581,23.641,11.133c9.98,5.94,18.498,11.315,26.008,17.383c-8.389-6.782-15.047-10.988-25.322-17.068
			c-6.924-3.947,5.062,2.276,9.621,5.025c1.927,1.203,4.578,3.672,6.479,4.874c4.134,2.72,7.67,5.573,11.931,8.756
			c1.822,1.349,1.368,1.491,2.24,2.209c5.399,4.815,10.021,8.062,13.064,11.607c2.369,2.643,4.685,4.824,6.57,7.308
			c1.258,1.52,2.502,3.02,3.845,4.575l2.647,2.952c-0.578-0.887-0.698-1.283-0.808-1.668c1.284,1.434,2.735,3.752,3.901,5.312
			c-1.166-1.56-2.617-3.879-3.901-5.312c0.109,0.386,0.229,0.781,0.808,1.668c5.939,7.495,12.708,16.371,17.52,25.562l-0.038-0.148
			c-2.799-5.375-5.979-10.345-9.176-15.752c1.389,2.345,1.102,2.119-0.592-0.473l-1.238-2.04c3.223,4.321,6.222,8.834,8.539,13.4
			c0,0,1.192,1.979,1.788,2.967c0.768,1.533,0.606,1.521,0.679,1.898l1.747,3.129C210.128,140.326,206.546,133.186,206.546,133.184z
			"/>
		<path d="M166.47,85.995c0.631,0.55,1.378,1.22,2.18,1.935c-2.805-2.74-6.005-4.985-8.982-7.5
			C161.145,81.886,163.795,83.931,166.47,85.995z"/>
	</g>
</g>
<g>
	
		<ellipse transform="matrix(0.7679 0.6406 -0.6406 0.7679 115.2339 -50.1372)" fill="#E31837" cx="126.801" cy="133.943" rx="97.269" ry="58.171"/>
	<g>
		<g>
			<path d="M209.858,157.363c-0.363-1.633-0.566-3.316-1.057-4.906c0.228,0.812,0.301,1.648,0.354,2.504
				C209.298,156.043,209.56,156.572,209.858,157.363z"/>
			<polygon points="207.491,147.996 207.241,147.145 206.964,146.438 			"/>
			<path d="M204.275,139.902c0.534,1.447,1.096,2.801,1.663,4.119C205.522,142.832,204.981,141.465,204.275,139.902z"/>
			<path d="M206.657,146.408c-0.079-0.543-0.061-0.812,0.296,0l0.011,0.029l-1.025-2.416
				C206.239,144.908,206.508,145.695,206.657,146.408z"/>
			<path d="M206.657,146.408c0.062,0.533,0.21,1.34,0.238,1.629C206.845,147.561,206.768,147.018,206.657,146.408z"/>
			<path d="M203.628,145.193c-0.381-0.75,0.324-0.809-0.444-2.334c-1.529-3.695-3.514-6.531-5.087-9.885
				c-0.932-1.426-1.671-4.094-2.641-5.491c-2.101-3.44-8.787-11.208-5.315-6.302c5.232,7.334,8.061,12.504,11.538,19.777
				c2.742,5.938,5.129,11.846,6.486,18.443c0.501,1.83,0.42,3.619,0.61,5.379c-0.081-2.311-0.227-4.689-0.75-7.283
				C207.606,154.033,205.604,150.193,203.628,145.193z"/>
			<path d="M204.383,193.045c0.499-0.73,1.24-2.301,1.177-2.336c2.282-3.205,3.517-7.232,4.169-11.25
				c-0.167,0.582-0.433,1.129-0.732,1.684c-0.624,2.232-0.522,2.557,0.213,0.6c-1.663,4.447-3.369,8.613-6.098,12.268
				C203.423,193.885,203.558,194.061,204.383,193.045z"/>
			<polygon points="201.616,196.24 203.111,194.01 203.003,194.061 201.553,196.301 			"/>
			<path d="M195.141,123.945c-6.15-9.72-13.213-18.021-20.663-25.498c-0.665-0.479-1.178-0.777-1.888-1.601
				c-0.506-0.679-1.034-1.316-1.636-1.891l-3.427-3.084l-1.26-1.047l-0.025-0.019c-0.7-0.518-0.584-0.273-0.249,0.154
				c0.403,0.453,0.756,0.879,1.047,1.256c-0.184-0.239-0.717-0.833-1.047-1.256c-0.479-0.538-1.052-1.137-1.734-1.793
				c-1.13-0.845-2.294-1.719-3.475-2.698c1.388,0.991,2.54,1.886,3.475,2.698l2.009,1.658l0.611,0.46
				c-2.562-2.437-5.379-4.528-8.114-6.751c-0.642-0.48-1.261-0.946-1.765-1.313c-2.093-1.434-4.266-2.753-5.369-3.934l-1.538-1.089
				l0.262,0.254l-0.538-0.447c-2.151-1.549-4.491-2.837-6.743-4.279c-1.544-0.801-3.141-1.571-4.784-2.27
				c0,0-0.96-0.752-1.438-1.127c-0.719-0.185-1.692-0.564-2.781-1.067c1.171,0.838,2.236,1.644,3.243,2.324
				c1.438,1.089,3.856,1.252,5.33,2.941c-1.474-1.689-3.892-1.852-5.33-2.941c-1.007-0.68-2.072-1.485-3.243-2.324
				c-2.253-1.143-5.253-2.408-7.499-3.812c3.078,1.084,5.56,2.329,7.499,3.812c1.089,0.503,2.062,0.883,2.781,1.067
				c0.478,0.375,1.438,1.128,1.438,1.128c1.644,0.698,3.24,1.468,4.784,2.269c-4.459-2.691-9.105-5.257-14.027-7.438
				c-15.688-7.209-32.545-11.553-49.604-9.689C62.515,57.848,45.18,70.459,42.6,89.494c-3.185,20.051,4.376,38.896,13.525,54.812
				c19.789,31.443,48.068,53.158,83.58,66.225c6.88,2.432,17.317,4.66,28,4.379c10.69-0.086,21.353-3.652,27.656-7.861
				c14.764-13.826,4.062-9.086,3.878-8.521c-9.413,5.258-17.187,11.678-39.545,9.217c15.271,1.475-11.825,2.107-24.781-5.748
				c-18.621-8.951-44.803-23.992-61.058-44.223c-4.096-4.914-8.207-10.305-12.306-16.727c-9.737-16.746-16.81-35.855-12.717-53.608
				c3.688-18.266,23.514-28.177,43.739-26.076c10.728,0.859,20.302,2.795,29.091,5.902c6.403,2.35,12.803,5.926,17.62,8.639
				c7.492,4.439,13.948,8.361,19.718,12.729c-6.375-4.97-11.424-8.05-19.168-12.552c-5.185-2.996,4.016,1.349,7.523,3.315
				c1.492,0.846,3.278,2.994,4.756,3.827c3.114,2.025,5.871,4.027,9.164,6.306c1.429,0.941,0.862,1.315,1.547,1.815
				c4.135,3.497,7.961,5.558,10.219,8.243c1.778,1.979,3.479,3.648,4.913,5.481c0.948,1.13,1.888,2.243,2.923,3.376l2.091,2.112
				c-0.36-0.722-0.356-1.099-0.343-1.469c0.964,1.075,2.076,2.789,2.938,3.964c-0.861-1.176-1.974-2.889-2.938-3.964
				c-0.014,0.37-0.018,0.748,0.343,1.469c4.775,5.326,10.115,11.752,14.092,18.393l-0.004-0.126
				c-2.222-3.938-4.747-7.555-7.033-11.688c1.01,1.781,0.751,1.642-0.64-0.209l-0.821-1.609c2.649,3.067,4.965,6.415,6.67,9.856
				c0-0.001,0.999,1.416,1.499,2.124c0.563,1.154,0.346,1.203,0.325,1.527l1.395,2.289
				C197.788,129.328,195.186,123.922,195.141,123.945z"/>
			<path d="M164.193,89.084c0.49,0.401,1.066,0.893,1.684,1.418c-2.134-2.045-4.557-3.742-6.818-5.632
				C160.082,86.09,162.126,87.578,164.193,89.084z"/>
		</g>
	</g>
</g>
<g>
	<g>
		<path d="M198.368,161.811c-0.267-1.236-0.656-2.443-0.977-3.66l0.292,1.891C197.818,160.854,198.137,161.217,198.368,161.811z"/>
		<polygon points="196.38,154.791 196.155,154.162 195.9,153.648 		"/>
		<path d="M193.841,148.732l1.285,3.094C194.851,150.91,194.472,149.869,193.841,148.732z"/>
		<path d="M195.599,153.652c-0.047-0.414-0.014-0.627,0.289-0.025l0.013,0.021l-0.774-1.822
			C195.335,152.5,195.491,153.111,195.599,153.652z"/>
		<path d="M195.599,153.652c0.046,0.404,0.173,1.01,0.194,1.227L195.599,153.652z"/>
		<path d="M192.791,152.953c-0.288-0.561,0.394-0.668-0.191-1.812c-1.433-2.666-2.62-4.938-3.971-7.389
			c-0.728-1.062-1.005-3.207-1.73-4.264c-1.685-2.539-6.484-8.574-4.069-4.75c3.598,5.738,5.906,9.531,8.419,15.061
			c2.198,4.42,4.072,8.824,5.354,13.717c0.28,1.385,0.562,2.689,0.671,4.014c-0.128-1.727-0.448-3.494-0.709-5.465
			C196.038,159.494,194.438,156.668,192.791,152.953z"/>
		<path d="M195.014,188.863c0.453-0.506,0.839-1.822,0.871-1.799c1.917-2.297,2.86-5.479,3.002-8.547l-0.542,1.289
			c-0.248,1.732-0.221,1.967,0.306,0.473c-1.264,3.385-2.521,6.535-4.759,9.164C194.171,189.396,194.302,189.57,195.014,188.863z"/>
		<polygon points="192.632,191.033 193.892,189.443 193.795,189.467 192.576,191.072 		"/>
		<path d="M187.003,136.664c-4.41-7.452-9.189-14.104-14.335-20.18c-0.492-0.383-0.886-0.617-1.35-1.295l-1.064-1.56l-2.327-2.579
			l-0.876-0.872l-0.018-0.016c-0.5-0.427-0.449-0.219-0.25,0.145l0.646,1.062c-0.108-0.203-0.447-0.704-0.646-1.062
			c-0.303-0.455-0.674-0.959-1.129-1.509c-0.783-0.721-1.584-1.47-2.379-2.31c0.971,0.846,1.755,1.613,2.379,2.31l1.396,1.38
			l0.436,0.381c-1.74-2.017-3.654-3.84-5.511-5.739c-0.442-0.411-0.869-0.81-1.219-1.124c-1.424-1.276-2.959-2.431-3.612-3.482
			l-1.047-0.962l0.162,0.226l-0.35-0.396c-1.442-1.385-3.019-2.63-4.564-3.924l-3.35-2.181c0.002,0-0.599-0.711-0.895-1.064
			c-0.541-0.184-1.242-0.554-2.007-1.038c0.749,0.793,1.42,1.555,2.074,2.2c0.903,1.03,2.768,1.323,3.631,2.807
			c-0.863-1.484-2.728-1.777-3.631-2.807c-0.654-0.645-1.325-1.407-2.074-2.2c-1.593-1.046-3.536-2.545-5.039-3.854
			c2.245,1.057,3.784,2.504,5.039,3.854c0.765,0.484,1.466,0.854,2.007,1.038c0.296,0.354,0.896,1.065,0.895,1.064l3.35,2.181
			c-2.979-2.566-6.217-4.901-9.515-7.265c-10.757-7.36-22.245-13.348-35.077-15.333c-6.334-0.915-13.285-0.682-19.386,2.662
			c-6.238,3.252-9.828,10.284-10.682,17.2c-1.627,15.41,4.53,29.221,10.884,41.528c13.864,24.422,32.907,42.328,56.993,57.701
			c9.093,5.932,30.14,12.795,42.237,7.607c13.708-9.064,3.745-7.195,3.82-6.76c-7.831,2.297-14.452,5-30.223-1.139
			c10.721,4.291-8.971-0.506-17.321-8.172c-12.112-9.887-30.33-23.17-41.404-39.262c-2.806-3.918-5.724-8.109-8.583-13.079
			c-6.795-12.87-12.485-27.028-10.413-39.928c1.778-13.508,18.194-16.588,32.437-11.146c7.667,2.478,14.417,5.329,20.592,8.668
			c4.414,2.621,8.719,6.077,11.977,8.673c5.157,4.06,9.54,7.678,13.588,11.333c-4.399-4.209-7.827-7.048-13.174-11.17
			c-3.554-2.782,3.009,1.245,5.42,3.077c1.062,0.744,2.072,2.653,3.124,3.386c2.127,1.816,4.068,3.504,6.379,5.448
			c1.019,0.799,0.44,1.152,0.931,1.568c2.848,2.92,5.738,4.591,7.226,6.78c1.201,1.606,2.279,3.041,3.306,4.459
			c0.637,0.911,1.272,1.805,1.99,2.715l1.479,1.683c-0.188-0.595-0.114-0.917-0.033-1.234c0.611,0.898,1.452,2.181,2.008,3.13
			c-0.556-0.949-1.396-2.232-2.008-3.13c-0.081,0.317-0.155,0.64,0.033,1.234c3.521,4.109,7.228,9.176,10.245,14.165l0.014-0.104
			c-1.684-2.953-3.342-5.84-4.935-9.021c0.733,1.355,0.466,1.293-0.545-0.133l-0.47-1.301c1.921,2.385,3.62,4.934,4.679,7.653
			c-0.011,0.006,0.827,1.029,1.178,1.578c0.367,0.9,0.156,0.957,0.093,1.225l0.984,1.762
			C188.883,140.773,187.06,136.637,187.003,136.664z"/>
		<path d="M165.617,108.728c0.339,0.334,0.736,0.744,1.163,1.183c-1.448-1.693-3.094-3.191-4.628-4.798
			C162.758,106.169,164.179,107.442,165.617,108.728z"/>
	</g>
</g>
<path d="M197.335,78.736l-92.537,28.601l0.278,1.348c-3.065-0.208-6.307,0.103-9.699,0.951c0.142-0.034-34.884,8.178-34.884,8.178
	l10.582,40.528l32.043-3.051c4.179-0.461,7.811-1.502,10.922-3.088l0.416,2.018l39.362-5.877l0.037,0.215l15.697-2.562l-0.045-0.26
	l17.541-3.166l-2.188-13.568l15.513-3.808l-2.412-15.641l3.96-1.198L197.335,78.736z M345.778,13.112l-32.208,16.15l0.303,2.924
	l-1.733-2.215l-59.774,27.01l-6.715,2.952l0.219,1.777c-3.061-0.078-6.196,0.521-9.391,1.812
	c0.117-0.046-31.868,12.421-31.868,12.421l8.513,61.118l32.804-8.028l-1.831-13.918c1.527-0.534,3.028-1.106,4.462-1.758
	c1.2-0.548,2.347-1.143,3.441-1.776l1.906,15.513l39.515-11.898l0.029,0.265l15.408-4.912l-0.021-0.196l16.965-5.63l-0.08-0.75
	l0.452,0.615l27.721-10.039L345.778,13.112z"/>
<g>
	<path fill="#FFFFFF" d="M115,124.248c1.146,1.573,1.86,3.045,2.144,4.406c0.319,1.537,0.118,3.653-0.604,6.333
		c-0.721,2.662-2.268,4.982-4.638,6.943c-2.37,1.916-5.609,3.09-9.719,3.541l-23.687,2.256l-5.905-22.619l25.179-5.903
		c3.807-0.952,7.172-0.979,10.099-0.042C110.795,120.143,113.172,121.837,115,124.248z M102.87,131.393
		c-0.401-1.795-1.311-3.165-2.722-4.105c-1.412-0.923-3.266-1.138-5.559-0.658l-6.879,1.405l2.947,12.228l6.358-0.857
		c2.422-0.338,4.106-1.293,5.05-2.871C103.011,134.941,103.279,133.223,102.87,131.393z"/>
	<path fill="#FFFFFF" d="M158.12,137.73l-35.887,5.357l-5.932-28.798l35.042-10.086l1.414,7.874l-21.351,5.598l0.812,4.157
		l18.104-4.369l1.376,7.695l-18.105,3.788l0.917,4.792l22.193-4.213L158.12,137.73z"/>
	<path fill="#FFFFFF" d="M190.862,101.396l-19.531,5.908l0.941,5.715l15.574-4.334l1.4,9.083l-15.572,3.823l2.095,12.992
		l-13.888,2.504l-5.933-34.31l33.42-11.027L190.862,101.396z"/>
	<path fill="#FFFFFF" d="M256.251,89.892c-0.391,2.328-1.205,4.58-2.445,6.754c-1.238,2.161-2.734,3.809-4.479,4.95
		c-1.444,1.041-3.061,1.966-4.847,2.782c-1.784,0.81-3.63,1.5-5.534,2.073c-0.996,0.297-2.052,0.571-3.166,0.818
		c-1.116,0.248-1.979,0.434-2.592,0.56l1.807,13.727l-13.607,3.33l-5.932-42.583l24.723-9.637c2.855-1.155,5.476-1.414,7.859-0.756
		c2.381,0.675,4.284,1.975,5.71,3.906c1.423,1.949,2.311,4.333,2.66,7.14C256.703,85.342,256.651,87.655,256.251,89.892z
		 M242.815,90.518c0.24-0.941,0.311-1.799,0.209-2.573c-0.1-0.772-0.507-1.553-1.22-2.34c-0.713-0.78-2.086-0.798-4.115-0.058
		l-7.134,2.567L231.747,97l7.976-2.652c0.777-0.262,1.427-0.73,1.949-1.406C242.193,92.264,242.576,91.458,242.815,90.518z"/>
	<path fill="#FFFFFF" d="M298.154,103.472l-35.887,10.805l-5.933-48.266l35.044-15.407l1.414,12.516l-21.351,8.838l0.812,6.822
		l18.104-7.119l1.374,12.21l-18.104,6.534l0.918,7.801l22.193-7.583L298.154,103.472z"/>
	<path fill="#FFFFFF" d="M343.317,87.89l-13.562,4.911l-17.687-24.088l3.087,29.152l-13.239,4.395l-5.932-53.779l13.236-6.232
		l17.991,22.995l-3.129-30.218l13.303-6.67L343.317,87.89z"/>
</g>
<path d="M281.826,144.289c-0.762-7.84-3.164-13.828-7.167-17.82c-4.52-4.452-10.255-5.818-16.154-3.848
	c-3.381,1.116-6.282,3.102-8.684,5.914l-0.191-1.861l-19.712,6.162l0.238,2.285c-2.229-0.762-4.634-0.822-7.09-0.088
	c0.037-0.012-19.965,5.812-19.965,5.812l0.315,2.873l-1.104-2.816l-17.068,4.633l-1.114,7.926c-0.38-0.52-0.781-1.021-1.229-1.486
	c-2.91-3.01-6.635-4.117-10.502-3.135c0.046-0.012-22.387,5.482-22.387,5.482l5.434,44.156l43.146-7.596l0.344-3.688l1.098,3.41
	l29.004-6.092c2.244-0.502,4.241-1.508,5.958-2.947l0.168,1.611l19.778-4.686l-0.312-3.051c3.648,1.977,7.742,2.465,12.05,1.381
	c5.632-1.434,9.881-5.506,12.646-12.109C281.737,158.904,282.578,152.037,281.826,144.289z"/>
<g>
	<path fill="#FFD200" d="M185.455,187.561l-8.854,1.646l-0.511-1.922c-0.097-0.34-0.19-0.852-0.284-1.543
		c-0.095-0.686-0.167-1.24-0.215-1.654c-0.07-0.588-0.127-1.061-0.17-1.426c-0.043-0.361-0.071-0.611-0.089-0.75
		c-0.138-1.172-0.405-2.125-0.802-2.857c-0.398-0.729-0.98-1.162-1.75-1.285l-0.988,0.195l-4.506,0.887l1.408,11.719l-8.372,1.387
		l-4.104-33.352l17.567-4.303c1.886-0.48,3.569,0.045,5.049,1.576c1.481,1.541,2.376,3.627,2.684,6.246
		c0.224,1.924,0.121,3.727-0.311,5.406c-0.43,1.672-1.226,3.014-2.389,4.018c-0.058,0.441-0.078,0.715-0.067,0.818
		c1.218,0.17,2.241,0.838,3.071,1.998c0.83,1.168,1.342,2.564,1.53,4.197l0.884,6.205c0.062,0.533,0.136,0.953,0.224,1.242
		c0.089,0.293,0.261,0.49,0.516,0.588l0.359-0.068L185.455,187.561z M171.201,163.662l-5.597,1.275l0.758,6.254l5.237-1.121
		c0.586-0.127,1.001-0.551,1.242-1.277c0.242-0.723,0.31-1.535,0.202-2.43c-0.103-0.861-0.315-1.555-0.639-2.078
		C172.083,163.758,171.682,163.551,171.201,163.662z"/>
	<path fill="#FFD200" d="M212.497,182.309l-8.646,1.766l-1.431-4.447l-8.606,1.764l-0.44,4.736l-8.367,1.568L190.308,150
		l8.603-2.336L212.497,182.309z M200.025,172.293l-3.898-11.664l-0.321,0.078l-1.29,12.805L200.025,172.293z"/>
	<path fill="#FFD200" d="M235.409,150.197c0.729,2.283,1.193,4.369,1.39,6.248c0.223,2.117,0.131,4.971-0.272,8.557
		c-0.404,3.58-1.318,6.676-2.749,9.277c-1.428,2.59-3.405,4.16-5.928,4.727l-14.54,3.133l-4.088-37.205l15.457-4.5
		c2.338-0.697,4.418-0.145,6.243,1.676C232.745,143.945,234.24,146.639,235.409,150.197z M228.036,158.801
		c-0.277-2.617-0.861-4.699-1.75-6.232c-0.888-1.529-2.035-2.1-3.443-1.709l-4.223,1.158l2.039,18.881l3.903-0.924
		c1.487-0.359,2.509-1.641,3.065-3.852C228.182,163.906,228.317,161.461,228.036,158.801z"/>
	<path fill="#FFD200" d="M248.831,174.148l-8.726,2.068l-4.104-39.379l8.726-2.727L248.831,174.148z"/>
	<path fill="#FFD200" d="M276.217,144.832c0.663,6.842-0.034,12.754-2.092,17.705c-2.055,4.91-4.996,7.846-8.82,8.82
		c-4.091,1.027-7.702,0.023-10.836-2.971c-3.133-2.961-5.034-7.705-5.698-14.252c-0.678-6.611,0.078-12.264,2.265-17.01
		c2.186-4.785,5.271-7.843,9.256-9.158c3.904-1.305,7.373-0.478,10.413,2.517C273.746,133.518,275.582,138.305,276.217,144.832z
		 M267.708,148.014c-0.299-3.031-1.026-5.533-2.178-7.502c-1.152-1.961-2.554-2.678-4.199-2.156
		c-1.675,0.521-2.845,2.096-3.512,4.717c-0.665,2.613-0.85,5.424-0.546,8.441c0.301,2.977,1.057,5.441,2.278,7.398
		c1.219,1.971,2.681,2.725,4.381,2.266c1.617-0.441,2.728-1.973,3.328-4.598C267.864,153.951,268.013,151.094,267.708,148.014z"/>
</g>
<g>
	<path fill="#FFFFFF" d="M220.659,170.898l-1.933-17.887l-1.517,0.414l2.039,18.881l3.904-0.922
		c0.925-0.225,1.668-0.805,2.233-1.742c-0.258,0.145-0.53,0.26-0.824,0.332L220.659,170.898z M165.733,165.996l-1.538,0.352
		l0.758,6.252l5.237-1.121c0.586-0.127,1.001-0.551,1.241-1.275c0.011-0.031,0.011-0.07,0.021-0.102l-5.09,1.09L165.733,165.996z
		 M194.516,173.512l0.935-9.283l-0.732-2.191l-0.321,0.078l-1.29,12.805l5.509-1.219l-0.341-1.021L194.516,173.512z
		 M181.823,174.363c-0.83-1.16-1.854-1.826-3.071-1.996c-0.011-0.104,0.01-0.377,0.067-0.818c1.163-1.004,1.959-2.344,2.389-4.018
		c0.432-1.68,0.534-3.484,0.311-5.406c-0.308-2.619-1.202-4.703-2.684-6.246c-1.479-1.531-3.163-2.057-5.049-1.578l-17.567,4.303
		l0.127,1.035l16.032-3.928c1.886-0.479,3.567,0.045,5.049,1.576c1.48,1.543,2.375,3.627,2.683,6.246
		c0.224,1.924,0.121,3.729-0.31,5.406c-0.43,1.674-1.226,3.014-2.389,4.02c-0.059,0.441-0.08,0.713-0.068,0.816
		c1.218,0.17,2.242,0.838,3.072,1.998c0.829,1.168,1.34,2.564,1.53,4.197l0.884,6.205c0.061,0.535,0.136,0.953,0.224,1.242
		c0.073,0.244,0.218,0.404,0.406,0.512l0.312-0.057l0.45-3.209l-0.868-6.102C183.165,176.93,182.653,175.533,181.823,174.363z
		 M259.552,158.912c-1.222-1.957-1.978-4.422-2.278-7.398c-0.304-3.018-0.119-5.828,0.546-8.443c0.3-1.176,0.705-2.129,1.208-2.881
		c-1.201,0.744-2.076,2.168-2.618,4.291c-0.664,2.613-0.848,5.424-0.544,8.441c0.3,2.977,1.057,5.443,2.276,7.4
		c1.221,1.971,2.682,2.725,4.382,2.266c0.9-0.246,1.639-0.842,2.224-1.764c-0.257,0.148-0.525,0.275-0.814,0.354
		C262.232,161.637,260.771,160.883,259.552,158.912z M198.91,147.664L190.308,150l-0.15,1.068l7.345-1.994l13.18,33.605l1.099-0.225
		l-0.301-2.744L198.91,147.664z M276.217,144.834c-0.635-6.531-2.471-11.316-5.513-14.351c-3.04-2.995-6.509-3.821-10.413-2.517
		c-2.325,0.768-4.336,2.148-6.05,4.1c1.384-1.213,2.923-2.124,4.64-2.691c3.906-1.305,7.375-0.478,10.415,2.517
		c3.041,3.033,4.877,7.82,5.512,14.35c0.664,6.84-0.035,12.754-2.092,17.705c-0.862,2.061-1.891,3.75-3.066,5.117
		c1.787-1.521,3.286-3.682,4.476-6.527C276.183,157.586,276.88,151.674,276.217,144.834z M236.002,136.838l0.098,0.939l7.219-2.258
		l3.996,38.988l1.517-0.359l-4.104-40.037L236.002,136.838z M192.074,186.371l1.3-0.244l0.334-3.594l-1.302,0.268L192.074,186.371z
		 M165.878,180.262l1.27,10.564l1.547-0.256l-1.275-10.615L165.878,180.262z M235.409,150.197c-1.169-3.559-2.664-6.252-4.487-8.088
		c-1.825-1.822-3.905-2.373-6.243-1.676l-15.457,4.5l0.104,0.967l13.944-4.057c2.336-0.699,4.417-0.146,6.241,1.674
		c1.824,1.836,3.319,4.529,4.488,8.088c0.729,2.285,1.194,4.369,1.389,6.248c0.224,2.119,0.132,4.971-0.271,8.557
		c-0.403,3.58-1.319,6.676-2.748,9.277c-0.351,0.633-0.732,1.203-1.146,1.715c0.988-0.787,1.841-1.828,2.555-3.123
		c1.431-2.604,2.345-5.699,2.749-9.277c0.197-1.744,0.314-3.309,0.364-4.705l-0.801-7.686
		C235.895,151.83,235.675,151.031,235.409,150.197z"/>
</g>
<g>
	<path fill="#FFFFFF" d="M183.505,77.427c-0.386,0.462-1.311,1.152-2.614,1.702c-3.019,1.273-6.079,0.318-7.566-3.209
		c-1.421-3.367-0.1-6.582,3.22-7.983c1.318-0.556,2.298-0.631,2.744-0.596l0.126,1.275c-0.616-0.04-1.443,0.084-2.333,0.46
		c-2.511,1.059-3.502,3.368-2.314,6.18c1.111,2.637,3.325,3.668,5.914,2.576c0.858-0.362,1.643-0.899,2.086-1.403L183.505,77.427z"
		/>
	<path fill="#FFFFFF" d="M183.511,71.585c-0.383-0.905-0.727-1.677-1.077-2.372l1.225-0.516l0.7,1.482l0.048-0.021
		c-0.087-1.179,0.497-2.192,1.434-2.588c0.143-0.06,0.262-0.09,0.401-0.112l0.55,1.302c-0.166,0.052-0.315,0.096-0.506,0.176
		c-0.984,0.416-1.369,1.457-1.124,2.571c0.056,0.22,0.133,0.449,0.234,0.687l1.729,4.099l-1.398,0.59L183.511,71.585z"/>
	<path fill="#FFFFFF" d="M195.864,70.435c0.281,0.668,0.587,1.305,0.889,1.796l-1.257,0.53l-0.534-0.915l-0.049,0.02
		c-0.157,0.778-0.771,1.674-1.868,2.136c-1.558,0.657-2.814-0.104-3.283-1.216c-0.784-1.859,0.439-3.573,3.416-4.811l-0.065-0.159
		c-0.269-0.635-0.932-1.721-2.499-1.041c-0.729,0.308-1.39,0.83-1.775,1.423l-0.714-0.805c0.468-0.665,1.291-1.331,2.261-1.739
		c2.366-0.999,3.615,0.365,4.266,1.906L195.864,70.435z M193.62,68.931c-1.54,0.612-3.157,1.612-2.526,3.106
		c0.388,0.921,1.166,1.079,1.865,0.784c1.017-0.429,1.399-1.339,1.347-2.084c-0.012-0.162-0.063-0.328-0.124-0.472L193.62,68.931z"
		/>
	<path fill="#FFFFFF" d="M198.062,70.725l1.57-5.996c0.168-0.577,0.314-1.069,0.507-1.637l-0.015-0.032l-4.178,1.764l-0.47-1.112
		l5.862-2.473l0.369,0.873l-1.558,5.936c-0.144,0.547-0.293,1.079-0.481,1.608l0.014,0.032l4.496-1.897l0.469,1.112l-6.244,2.634
		L198.062,70.725z"/>
	<path fill="#FFFFFF" d="M203.302,58.745c-0.523,0.221-1.048-0.044-1.256-0.538c-0.207-0.492-0.009-1.043,0.53-1.271
		c0.541-0.228,1.059,0.021,1.266,0.513c0.208,0.494,0.031,1.054-0.524,1.289L203.302,58.745z M206.476,68.13l-3.244-7.69l1.397-0.59
		l3.245,7.69L206.476,68.13z"/>
	<path fill="#FFFFFF" d="M209.862,62.452c0.83,1.878,2.351,2.154,3.748,1.564c1-0.422,1.548-0.858,1.969-1.28l0.67,0.878
		c-0.399,0.429-1.144,1.061-2.367,1.577c-2.352,0.992-4.444,0.023-5.416-2.281c-0.985-2.335-0.373-4.746,1.866-5.69
		c2.511-1.059,4.094,0.874,4.69,2.288c0.12,0.286,0.198,0.516,0.234,0.688L209.862,62.452z M213.524,59.729
		c-0.354-0.88-1.324-2.117-2.883-1.461c-1.429,0.604-1.482,2.162-1.186,3.177L213.524,59.729z"/>
	<path fill="#FFFFFF" d="M218.159,61.535c0.536,0.073,1.389,0.051,2.088-0.244c1.001-0.422,1.27-1.117,0.995-1.767
		c-0.281-0.668-0.834-0.865-2.012-0.817c-1.611,0.081-2.578-0.391-2.967-1.312c-0.522-1.24,0.064-2.686,1.7-3.376
		c0.78-0.329,1.55-0.41,2.077-0.313l0.09,1.142c-0.377-0.047-1.047-0.083-1.762,0.218c-0.827,0.349-1.069,1.014-0.828,1.585
		c0.273,0.65,0.839,0.749,2.002,0.708c1.526-0.064,2.507,0.309,2.995,1.467c0.576,1.367-0.086,2.77-1.881,3.527
		c-0.843,0.355-1.714,0.46-2.388,0.372L218.159,61.535z"/>
	<path fill="#FFFFFF" d="M223.298,49.803l0.777,1.844l2.003-0.845l0.448,1.065l-2.001,0.845l1.749,4.146
		c0.402,0.953,0.9,1.38,1.679,1.051c0.381-0.161,0.591-0.286,0.77-0.437l0.513,1.037c-0.229,0.21-0.619,0.487-1.159,0.714
		c-0.651,0.275-1.269,0.273-1.756,0.049c-0.563-0.268-1.011-0.884-1.392-1.789l-1.771-4.195l-1.191,0.503l-0.449-1.065l1.191-0.503
		l-0.597-1.413L223.298,49.803z"/>
	<path fill="#FFFFFF" d="M230.653,45.503c0.64-0.437,1.615-0.962,2.552-1.358c1.478-0.623,2.567-0.745,3.489-0.423
		c0.721,0.24,1.346,0.837,1.701,1.679c0.59,1.399,0.078,2.718-0.872,3.568l0.021,0.048c0.93-0.057,1.745,0.499,2.483,1.497
		c0.98,1.346,1.67,2.271,2.052,2.597l-1.43,0.603c-0.302-0.228-0.93-1.049-1.778-2.262c-0.942-1.345-1.764-1.651-3.039-1.17
		l-1.303,0.55l1.957,4.639l-1.383,0.583L230.653,45.503z M234.087,49.782l1.414-0.596c1.478-0.624,2.074-1.829,1.557-3.052
		c-0.582-1.382-1.839-1.563-3.3-0.947c-0.668,0.281-1.101,0.54-1.313,0.703L234.087,49.782z"/>
	<path fill="#FFFFFF" d="M248.832,48.09c0.281,0.668,0.588,1.305,0.889,1.797l-1.255,0.529l-0.535-0.916l-0.048,0.021
		c-0.158,0.778-0.773,1.673-1.87,2.136c-1.556,0.656-2.812-0.105-3.281-1.217c-0.785-1.858,0.438-3.572,3.416-4.811l-0.067-0.158
		c-0.269-0.635-0.932-1.721-2.497-1.042c-0.731,0.308-1.392,0.829-1.777,1.422l-0.714-0.804c0.467-0.665,1.292-1.33,2.261-1.739
		c2.367-0.999,3.617,0.365,4.266,1.905L248.832,48.09z M246.588,46.586c-1.538,0.612-3.156,1.612-2.527,3.105
		c0.391,0.921,1.168,1.079,1.866,0.784c1.018-0.429,1.4-1.338,1.348-2.084c-0.013-0.162-0.063-0.329-0.124-0.472L246.588,46.586z"/>
	<path fill="#FFFFFF" d="M254.128,34.739l3.922,9.294c0.288,0.682,0.632,1.453,0.902,1.958l-1.256,0.53l-0.628-1.309l-0.03,0.014
		c-0.067,1.039-0.715,2.08-1.971,2.609c-1.856,0.784-3.967-0.179-4.953-2.515c-1.101-2.567-0.152-4.801,1.706-5.585
		c1.19-0.502,2.222-0.281,2.809,0.182l0.032-0.014l-1.931-4.576L254.128,34.739z M255.566,42.049
		c-0.081-0.191-0.189-0.406-0.318-0.578c-0.576-0.787-1.647-1.195-2.695-0.752c-1.446,0.61-1.768,2.242-1.057,3.927
		c0.663,1.572,1.984,2.531,3.479,1.9c0.938-0.395,1.527-1.392,1.347-2.532c-0.033-0.21-0.098-0.407-0.192-0.63L255.566,42.049z"/>
	<path fill="#FFFFFF" d="M258.432,35.488c-0.524,0.221-1.047-0.045-1.257-0.539c-0.206-0.492-0.01-1.042,0.532-1.27
		c0.539-0.229,1.057,0.021,1.264,0.514c0.208,0.492,0.033,1.054-0.523,1.288L258.432,35.488z M261.604,44.874l-3.244-7.69
		l1.398-0.59l3.244,7.689L261.604,44.874z"/>
	<path fill="#FFFFFF" d="M268.924,41.992c-2.065,0.871-4.33,0.029-5.355-2.402c-1.086-2.573-0.021-4.801,2.09-5.692
		c2.209-0.931,4.38,0.043,5.364,2.378c1.207,2.86-0.257,4.938-2.083,5.708L268.924,41.992z M268.528,40.922
		c1.334-0.562,1.806-2.24,1.067-3.988c-0.548-1.302-1.891-2.664-3.543-1.967c-1.636,0.69-1.707,2.517-1.091,3.979
		c0.711,1.684,2.2,2.553,3.55,1.984L268.528,40.922z"/>
	<path fill="#FFFFFF" d="M282.904,36.093c-2.844,1.2-5.739-0.161-7.107-3.403c-1.434-3.398-0.275-6.509,2.586-7.715
		c2.938-1.24,5.773,0.203,7.114,3.38c1.548,3.67,0.141,6.585-2.577,7.732L282.904,36.093z M282.492,34.938
		c2.191-0.925,2.579-3.465,1.555-5.896c-0.899-2.128-2.949-3.883-5.253-2.912c-2.303,0.973-2.543,3.6-1.564,5.918
		c0.952,2.257,3.07,3.815,5.246,2.896L282.492,34.938z"/>
	<path fill="#FFFFFF" d="M287.582,27.309c-0.343-0.812-0.627-1.44-0.941-2.055l1.238-0.523l0.61,1.222l0.031-0.014
		c0.079-0.875,0.667-1.966,1.938-2.502c1.063-0.449,2.985-0.511,4.098,2.127l1.937,4.591l-1.398,0.59l-1.87-4.433
		c-0.522-1.24-1.425-2.094-2.744-1.538c-0.906,0.383-1.347,1.336-1.272,2.222c0.011,0.202,0.087,0.469,0.181,0.692l1.956,4.639
		l-1.397,0.59L287.582,27.309z"/>
	<path fill="#FFFFFF" d="M298.525,16.87c0.638-0.437,1.614-0.962,2.553-1.357c1.477-0.624,2.567-0.746,3.488-0.423
		c0.719,0.24,1.346,0.836,1.7,1.678c0.591,1.398,0.08,2.718-0.87,3.568l0.019,0.048c0.932-0.057,1.746,0.499,2.485,1.497
		c0.979,1.346,1.669,2.271,2.049,2.597l-1.43,0.604c-0.302-0.228-0.929-1.049-1.778-2.262c-0.94-1.344-1.762-1.651-3.038-1.17
		l-1.304,0.55l1.957,4.64l-1.381,0.583L298.525,16.87z M301.959,21.149l1.413-0.596c1.479-0.624,2.073-1.829,1.557-3.052
		c-0.583-1.382-1.838-1.563-3.301-0.947c-0.665,0.281-1.101,0.539-1.312,0.704L301.959,21.149z"/>
	<path fill="#FFFFFF" d="M316.703,19.458c0.282,0.667,0.588,1.305,0.889,1.796l-1.257,0.529l-0.535-0.915l-0.048,0.02
		c-0.158,0.778-0.771,1.673-1.868,2.136c-1.557,0.657-2.814-0.104-3.283-1.217c-0.783-1.858,0.44-3.573,3.417-4.811l-0.067-0.159
		c-0.268-0.635-0.931-1.721-2.498-1.041c-0.729,0.308-1.391,0.83-1.775,1.423l-0.715-0.804c0.469-0.666,1.292-1.331,2.262-1.739
		c2.366-0.999,3.616,0.365,4.267,1.905L316.703,19.458z M314.458,17.954c-1.538,0.612-3.156,1.612-2.525,3.106
		c0.389,0.922,1.166,1.079,1.865,0.785c1.018-0.43,1.399-1.339,1.348-2.085c-0.013-0.162-0.063-0.328-0.124-0.471L314.458,17.954z"
		/>
	<path fill="#FFFFFF" d="M322,6.107l3.92,9.294c0.287,0.682,0.633,1.455,0.902,1.959l-1.256,0.529l-0.626-1.308l-0.032,0.013
		c-0.066,1.04-0.714,2.08-1.969,2.61c-1.859,0.783-3.969-0.18-4.954-2.515c-1.101-2.567-0.152-4.801,1.707-5.585
		c1.19-0.502,2.219-0.282,2.809,0.182l0.031-0.014l-1.932-4.576L322,6.107z M323.437,13.418c-0.081-0.191-0.19-0.407-0.318-0.579
		c-0.574-0.786-1.646-1.195-2.694-0.752c-1.446,0.61-1.768,2.243-1.057,3.927c0.663,1.572,1.984,2.53,3.479,1.901
		c0.936-0.396,1.526-1.393,1.345-2.534c-0.032-0.21-0.097-0.407-0.191-0.63L323.437,13.418z"/>
	<path fill="#FFFFFF" d="M326.303,6.856c-0.525,0.221-1.049-0.044-1.257-0.538c-0.208-0.493-0.01-1.043,0.531-1.271
		c0.539-0.228,1.057,0.021,1.265,0.514c0.207,0.493,0.032,1.054-0.524,1.289L326.303,6.856z M329.476,16.241l-3.245-7.689
		l1.398-0.59l3.244,7.689L329.476,16.241z"/>
	<path fill="#FFFFFF" d="M336.793,13.36c-2.065,0.871-4.329,0.029-5.354-2.4c-1.085-2.574-0.022-4.801,2.091-5.693
		c2.208-0.932,4.379,0.043,5.363,2.379c1.207,2.859-0.255,4.937-2.083,5.708L336.793,13.36z M336.398,12.292
		c1.334-0.563,1.807-2.241,1.069-3.99c-0.55-1.301-1.893-2.664-3.544-1.967c-1.636,0.691-1.708,2.518-1.091,3.979
		c0.71,1.685,2.201,2.553,3.55,1.984L336.398,12.292z"/>
</g>
</svg>
