<svg style="position: absolute; width: 0; height: 0;" width="0" height="0" version="1.1" xmlns="http://www.w3.org/2000/svg" xmlns:xlink="http://www.w3.org/1999/xlink">
<defs>
<symbol id="icon-mail" viewBox="0 0 1024 1024">
	<title>mail</title>
	<path class="path1" d="M930.909 884.364h-837.818c-51.386 0-93.091-41.705-93.091-93.091v-558.545c0-51.386 41.705-93.091 93.091-93.091h837.818c51.386 0 93.091 41.705 93.091 93.091v558.545c0 51.386-41.705 93.091-93.091 93.091zM884.364 791.273l-266.799-233.472-105.565 93.836-105.565-93.836-266.799 233.472h744.727zM93.091 744.727l261.818-232.727-261.818-232.727v465.455zM139.636 232.727l372.364 325.818 372.364-325.818h-744.727zM930.909 279.273l-261.818 232.727 261.818 232.727v-465.455z"></path>
</symbol>
<symbol id="icon-arrow_back" viewBox="0 0 1024 1024">
	<title>arrow_back</title>
	<path class="path1" d="M853.333 469.333h-519.253l238.293-238.293-60.373-60.373-341.333 341.333 341.333 341.333 60.373-60.373-238.293-238.293h519.253v-85.333z"></path>
</symbol>
<symbol id="icon-arrow_forward" viewBox="0 0 1024 1024">
	<title>arrow_forward</title>
	<path class="path1" d="M512 170l342 342-342 342-60-60 238-240h-520v-84h520l-238-240z"></path>
</symbol>
<symbol id="icon-feedback" viewBox="0 0 1024 1024">
	<title>feedback</title>
	<path class="path1" d="M170.667 42.667h682.667q53 0 90.5 37.5t37.5 90.5v469.333q0 53-37.5 90.5t-90.5 37.5h-341.333l-298.667 213.333v-213.333h-42.667q-53 0-90.5-37.5t-37.5-90.5v-469.333q0-53 37.5-90.5t90.5-37.5zM853.333 128h-682.667q-17.667 0-30.167 12.5t-12.5 30.167v469.333q0 17.667 12.5 30.167t30.167 12.5h128v133l186-133h368.667q17.667 0 30.167-12.5t12.5-30.167v-469.333q0-17.667-12.5-30.167t-30.167-12.5z"></path>
</symbol>
<symbol id="icon-ok" viewBox="0 0 1024 1024">
	<title>ok</title>
	<path class="path1" d="M927.936 272.992l-68.288-68.288c-12.608-12.576-32.96-12.576-45.536 0l-409.44 409.44-194.752-196.16c-12.576-12.576-32.928-12.576-45.536 0l-68.288 68.288c-12.576 12.608-12.576 32.96 0 45.536l285.568 287.488c12.576 12.576 32.96 12.576 45.536 0l500.736-500.768c12.576-12.544 12.576-32.96 0-45.536z"></path>
</symbol>
<symbol id="icon-hear" viewBox="0 0 1024 1024">
	<title>hear</title>
	<path class="path1" d="M719.53 831.53c-12.286 0-24.566-4.686-33.942-14.056-18.744-18.744-18.744-49.136 0-67.882 131.006-131.006 131.006-344.17 0-475.176-18.744-18.746-18.744-49.138 0-67.882 18.744-18.742 49.138-18.744 67.882 0 81.594 81.59 126.53 190.074 126.53 305.466 0 115.39-44.936 223.876-126.53 305.47-9.372 9.374-21.656 14.060-33.94 14.060v0zM549.020 741.020c-12.286 0-24.566-4.686-33.942-14.058-18.746-18.746-18.746-49.134 0-67.88 81.1-81.1 81.1-213.058 0-294.156-18.746-18.746-18.746-49.138 0-67.882s49.136-18.744 67.882 0c118.53 118.53 118.53 311.392 0 429.922-9.372 9.368-21.656 14.054-33.94 14.054z"></path>
	<path class="path2" d="M416.006 960c-8.328 0-16.512-3.25-22.634-9.374l-246.626-246.626h-114.746c-17.672 0-32-14.326-32-32v-320c0-17.672 14.328-32 32-32h114.746l246.626-246.628c9.154-9.154 22.916-11.89 34.874-6.936 11.958 4.952 19.754 16.622 19.754 29.564v832c0 12.944-7.796 24.612-19.754 29.564-3.958 1.64-8.118 2.436-12.24 2.436z"></path>
</symbol>
<symbol id="icon-spotify" viewBox="0 0 1024 1024">
	<title>spotify</title>
	<path class="path1" d="M644 691.429q0-18.286-17.143-29.143-110.286-65.714-255.429-65.714-76 0-164 19.429-24 5.143-24 29.714 0 11.429 7.714 19.714t20.286 8.286q2.857 0 21.143-4.571 75.429-15.429 138.857-15.429 129.143 0 226.857 58.857 10.857 6.286 18.857 6.286 10.857 0 18.857-7.714t8-19.714zM698.857 568.571q0-22.857-20-34.857-135.429-80.571-313.143-80.571-87.429 0-173.143 24-27.429 7.429-27.429 36.571 0 14.286 10 24.286t24.286 10q4 0 21.143-4.571 69.714-18.857 143.429-18.857 159.429 0 278.857 70.857 13.714 7.429 21.714 7.429 14.286 0 24.286-10t10-24.286zM760.571 426.857q0-26.857-22.857-40-72-41.714-167.429-63.143t-196-21.429q-116.571 0-208 26.857-13.143 4-22 14.571t-8.857 27.714q0 17.714 11.714 29.714t29.429 12q6.286 0 22.857-4.571 76-21.143 175.429-21.143 90.857 0 176.857 19.429t144.857 54.286q12 6.857 22.857 6.857 16.571 0 28.857-11.714t12.286-29.429zM877.714 512q0 119.429-58.857 220.286t-159.714 159.714-220.286 58.857-220.286-58.857-159.714-159.714-58.857-220.286 58.857-220.286 159.714-159.714 220.286-58.857 220.286 58.857 159.714 159.714 58.857 220.286z"></path>
</symbol>
<symbol id="icon-last" viewBox="0 0 1024 1024">
	<title>last</title>
	<path class="path1" d="M765.901 234.035l-368.794 253.389c0 0-14.285 10.291-14.285 24.627s14.285 24.525 14.285 24.525l368.794 253.491c29.286 19.456 53.299 5.069 53.299-32.051v-491.981c0-37.222-24.013-51.61-53.299-32zM307.2 204.8h-51.2c-28.314 0-51.2 2.458-51.2 30.72v552.96c0 28.262 22.886 30.72 51.2 30.72h51.2c28.314 0 51.2-2.458 51.2-30.72v-552.96c0-28.262-22.886-30.72-51.2-30.72z"></path>
</symbol>
<symbol id="icon-next" viewBox="0 0 1024 1024">
	<title>next</title>
	<path class="path1" d="M626.893 487.424l-368.794-253.389c-29.286-19.61-53.299-5.222-53.299 32v491.981c0 37.12 24.013 51.507 53.299 32l368.794-253.491c0 0 14.285-10.189 14.285-24.474 0-14.336-14.285-24.627-14.285-24.627zM716.8 204.8h51.2c28.314 0 51.2 2.458 51.2 30.72v552.96c0 28.262-22.886 30.72-51.2 30.72h-51.2c-28.314 0-51.2-2.458-51.2-30.72v-552.96c0-28.262 22.886-30.72 51.2-30.72z"></path>
</symbol>
<symbol id="icon-pause" viewBox="0 0 1024 1024">
	<title>pause</title>
	<path class="path1" d="M768 153.6h-102.4c-28.314 0-51.2 2.458-51.2 30.72v655.36c0 28.262 22.886 30.72 51.2 30.72h102.4c28.314 0 51.2-2.458 51.2-30.72v-655.36c0-28.262-22.886-30.72-51.2-30.72zM358.4 153.6h-102.4c-28.314 0-51.2 2.458-51.2 30.72v655.36c0 28.262 22.886 30.72 51.2 30.72h102.4c28.314 0 51.2-2.458 51.2-30.72v-655.36c0-28.262-22.886-30.72-51.2-30.72z"></path>
</symbol>
<symbol id="icon-play" viewBox="0 0 1024 1024">
	<title>play</title>
	<path class="path1" d="M768 512.051c0 15.309-15.616 26.317-15.616 26.317l-438.323 271.514c-31.949 20.941-58.061 5.427-58.061-34.253v-527.206c0-39.782 26.112-55.194 58.112-34.304l438.323 271.616c-0.051 0 15.565 11.008 15.565 26.317z"></path>
</symbol>
<symbol id="icon-dots" viewBox="0 0 1024 1024">
	<title>dots</title>
	<path class="path1" d="M512.051 399.36c-62.208 0-112.691 50.432-112.691 112.64s50.483 112.64 112.691 112.64c62.208 0 112.589-50.432 112.589-112.64s-50.381-112.64-112.589-112.64zM153.651 399.36c-62.208 0-112.691 50.432-112.691 112.64s50.483 112.64 112.691 112.64c62.208 0 112.589-50.483 112.589-112.64s-50.381-112.64-112.589-112.64zM870.451 399.36c-62.208 0-112.691 50.432-112.691 112.64s50.483 112.64 112.691 112.64c62.208 0 112.589-50.432 112.589-112.64s-50.381-112.64-112.589-112.64z"></path>
</symbol>
<symbol id="icon-calendar" viewBox="0 0 1024 1024">
	<title>calendar</title>
	<path class="path1" d="M870.4 153.6h-51.2v102.4h-153.6v-102.4h-307.2v102.4h-153.6v-102.4h-51.2c-56.371 0-102.4 46.080-102.4 102.4v614.4c0 56.32 46.029 102.4 102.4 102.4h716.8c56.32 0 102.4-46.080 102.4-102.4v-614.4c0-56.32-46.080-102.4-102.4-102.4zM870.4 870.4h-716.8v-409.6h716.8v409.6zM332.8 51.2h-102.4v179.2h102.4v-179.2zM793.6 51.2h-102.4v179.2h102.4v-179.2z"></path>
</symbol>
<symbol id="icon-cross" viewBox="0 0 1024 1024">
	<title>cross</title>
	<path class="path1" d="M734.618 760.269c-24.013 24.013-62.925 24.013-86.886 0l-135.731-155.136-135.731 155.085c-24.013 24.013-62.925 24.013-86.886 0-24.013-24.013-24.013-62.925 0-86.886l141.21-161.28-141.261-161.382c-24.013-24.013-24.013-62.874 0-86.886s62.874-24.013 86.886 0l135.782 155.187 135.731-155.187c24.013-24.013 62.874-24.013 86.886 0s24.013 62.925 0 86.886l-141.21 161.382 141.21 161.28c24.013 24.013 24.013 62.925 0 86.938z"></path>
</symbol>
<symbol id="icon-cycle" viewBox="0 0 1024 1024">
	<title>cycle</title>
	<path class="path1" d="M282.419 728.269c-115.814-124.518-113.766-319.693 6.554-440.883 49.254-49.613 110.797-79.206 174.797-88.883l-3.533-106.342c-89.856 10.906-176.742 50.995-245.606 120.371-161.229 162.304-163.174 424.397-6.298 590.387l-89.139 89.702 282.112 15.411-0.768-298.701-118.118 118.938zM622.746 115.968l0.768 298.701 118.118-118.886c115.814 124.621 113.766 319.795-6.554 440.883-49.203 49.613-110.797 79.206-174.797 88.883l3.533 106.291c89.856-10.906 176.742-50.995 245.658-120.32 161.178-162.406 163.123-424.499 6.246-590.387l89.139-89.805-282.112-15.36z"></path>
</symbol>
<symbol id="icon-help" viewBox="0 0 1024 1024">
	<title>help</title>
	<path class="path1" d="M721.408 114.33c-58.368-42.086-131.686-63.13-219.955-63.13-67.123 0-123.802 14.797-169.83 44.442-73.062 46.387-111.872 125.184-116.582 236.288h169.318c0-32.41 9.472-63.488 28.314-93.594 18.893-30.003 50.944-45.005 96.154-45.005 45.978 0 77.67 12.186 94.925 36.506 17.357 24.422 26.010 51.405 26.010 80.998 0 25.805-12.902 49.408-28.518 70.81-8.55 12.493-19.814 24.013-33.843 34.509 0 0-91.802 58.88-132.096 106.189-23.347 27.392-25.446 68.506-27.546 127.386-0.102 4.198 1.485 12.902 16.128 12.902 14.694 0 118.579 0 131.635 0 13.107 0 15.821-9.677 15.974-14.029 0.922-21.402 3.277-32.41 7.219-44.8 7.373-23.398 27.546-43.776 50.125-61.389l46.592-32.102c42.086-32.819 75.622-59.699 90.47-80.794 25.293-34.611 43.11-77.312 43.11-128-0.051-82.688-29.235-144.998-87.603-187.187zM498.739 764.109c-58.317-1.792-106.445 38.605-108.288 101.888-1.792 63.181 43.93 105.011 102.298 106.701 60.877 1.792 107.725-37.222 109.619-100.506 1.741-63.283-42.701-106.291-103.629-108.083z"></path>
</symbol>
<symbol id="icon-link" viewBox="0 0 1024 1024">
	<title>link</title>
	<path class="path1" d="M402.381 752.179l-41.472 41.216c-35.891 35.584-94.362 35.584-130.304 0-17.203-17.101-26.675-39.885-26.675-64.102s9.523-46.899 26.675-64.102l152.576-151.296c31.59-31.386 91.085-77.568 134.451-34.56 19.917 19.763 52.019 19.661 71.834-0.256 19.712-19.917 19.61-52.070-0.307-71.782-73.626-73.114-182.579-59.597-277.453 34.56l-152.576 151.347c-36.608 36.301-56.73 84.685-56.73 136.090 0 51.507 20.173 99.789 56.73 136.090 37.683 37.376 87.142 56.115 136.653 56.115s99.021-18.688 136.653-56.115l41.523-41.216c19.917-19.712 20.019-51.814 0.256-71.68-19.814-19.866-51.917-19.968-71.834-0.307zM864.819 164.198c-79.206-78.541-189.901-82.79-263.117-10.086l-51.661 51.302c-19.917 19.763-20.070 51.866-0.307 71.731 19.763 19.917 51.866 20.019 71.782 0.256l51.712-51.251c37.888-37.683 87.603-22.067 120.115 10.086 17.203 17.152 26.726 39.885 26.726 64.102s-9.523 46.95-26.726 64.051l-162.816 161.485c-74.445 73.779-109.363 39.219-124.262 24.422-19.917-19.763-52.019-19.61-71.731 0.256-19.763 19.917-19.661 52.070 0.256 71.731 34.202 33.894 73.216 50.688 114.074 50.688 50.022 0 102.912-25.19 153.242-75.11l162.816-161.434c36.454-36.352 56.678-84.685 56.678-136.090 0-51.456-20.224-99.789-56.781-136.141z"></path>
</symbol>
<symbol id="icon-log-out" viewBox="0 0 1024 1024">
	<title>log-out</title>
	<path class="path1" d="M972.8 512l-307.2-256v153.6h-358.4v204.8h358.4v153.6l307.2-256zM153.6 153.6h409.6v-102.4h-409.6c-56.32 0-102.4 46.080-102.4 102.4v716.8c0 56.32 46.080 102.4 102.4 102.4h409.6v-102.4h-409.6v-716.8z"></path>
</symbol>
<symbol id="icon-login" viewBox="0 0 1024 1024">
	<title>login</title>
	<path class="path1" d="M716.8 512l-307.2-256v153.6h-358.4v204.8h358.4v153.6l307.2-256zM870.4 870.4h-409.6v102.4h409.6c56.32 0 102.4-46.080 102.4-102.4v-716.8c0-56.32-46.080-102.4-102.4-102.4h-409.6v102.4h409.6v716.8z"></path>
</symbol>
<symbol id="icon-plus" viewBox="0 0 1024 1024">
	<title>plus</title>
	<path class="path1" d="M819.2 512c0 28.314-2.458 51.2-30.771 51.2h-225.229v225.229c0 28.262-22.886 30.771-51.2 30.771s-51.2-2.509-51.2-30.771v-225.229h-225.229c-28.262 0-30.771-22.886-30.771-51.2s2.509-51.2 30.771-51.2h225.229v-225.229c0-28.314 22.886-30.771 51.2-30.771s51.2 2.458 51.2 30.771v225.229h225.229c28.314 0 30.771 22.886 30.771 51.2z"></path>
</symbol>
</defs>
</svg>
